<?xml version="1.0" encoding="UTF-8" standalone="no"?>
<!DOCTYPE svg PUBLIC "-//W3C//DTD SVG 1.1//EN" "http://www.w3.org/Graphics/SVG/1.1/DTD/svg11.dtd">
<svg version="1.1" xmlns="http://www.w3.org/2000/svg" xmlns:xlink="http://www.w3.org/1999/xlink" preserveAspectRatio="xMidYMid meet" viewBox="0 0 640 640" width="640" height="640"><defs><path d="" id="i1zcu0TGkk"></path><path d="" id="aF4tVUEH9"></path><path d="M335.96 158.77C334.29 157.03 332.55 157.03 330.73 158.77" id="aQqypav9i"></path><path d="M416.17 144.05L413.95 399.69L462.61 435.89L461.87 144.05" id="bm4KHCwuG"></path><path d="M333.37 15.64C297.58 52.29 278.66 84.37 276.63 111.88" id="c5HXG4m4b"></path><path d="M333.37 15.64C369.17 52.29 388.08 84.37 390.11 111.88" id="b2tGCd7AhT"></path><path d="M295.21 321.61C293.54 338.38 287.67 359.47 277.6 384.88L276.63 111.14" id="bGD1r3MGf"></path><path d="M371.53 322.35C373.21 339.13 379.08 360.22 389.14 385.62L390.11 111.88" id="a1hJ91Oj5z"></path><path d="" id="aX55UiRrM"></path><path d="M308.74 208.97C308.74 224.06 304.23 261.81 295.21 322.2" id="c3kZXkDM66"></path><path d="M358.01 208.97C358.01 224.06 362.52 261.81 371.53 322.2" id="a19UdknFsv"></path><path d="M331.13 158.46C317.08 171.25 309.62 188.09 308.74 208.97" id="b1xHmGYtYP"></path><path d="M335.62 158.46C349.67 171.25 357.13 188.09 358.01 208.97" id="f1idnfrtaL"></path><path d="M437.16 104.51C432.72 104.16 425.52 117.49 415.56 144.51" id="b5pGvpUWHe"></path><path d="M440.07 104.51C444.51 104.16 451.71 117.49 461.67 144.51" id="c257JRvir"></path><path d="M440.07 104.51C438.94 104.36 437.97 104.36 437.16 104.51" id="g11FIzIN5e"></path><path d="" id="e1PYzNx0wl"></path><path d="M248.81 144.05L251.04 399.69L202.37 435.89L203.11 144.05" id="b18MrC0T8L"></path><path d="M227.3 104.5C231.74 104.15 238.94 117.48 248.9 144.5" id="a34dvp4Xp"></path><path d="M224.71 104.5C220.27 104.15 213.07 117.48 203.11 144.5" id="aDS5FVU7k"></path><path d="M227.3 104.5C226.17 104.35 225.2 104.35 224.39 104.5" id="g1BiYVjNcX"></path><path d="M250.07 503.74C236.17 503.26 220.78 501.6 203.9 498.76" id="hQFExPyVa"></path><path d="M249.6 503.74L250.07 537.37L203.9 537.37L203.9 498.76" id="a4blJWm148"></path><path d="" id="l1pcQDWSeL"></path><path d="M203.9 499.72L203.9 498.33" id="bYKAaX1KG"></path><path d="M415.99 503.74C429.9 503.26 445.29 501.6 462.17 498.76" id="c485xisZFc"></path><path d="M416.46 503.74L415.99 537.37L462.17 537.37L462.17 498.76" id="c2aIRogbZ1"></path><path d="" id="g64JbvhsZf"></path><path d="M292.72 505.61C283.22 505.5 277.75 505.37 276.32 505.21" id="ebGEOcXuT"></path><path d="M374.38 505.33C377.51 505.71 383.16 505.71 391.33 505.33L391.33 553.77L275.9 553.41L276.67 504.92" id="h6FY2Nwln"></path><path d="M294.22 515.77C292.51 509.6 291.92 506.21 292.44 505.61" id="e1pqWKMQP"></path><path d="M372.96 515.38C374.67 509.21 375.26 505.82 374.75 505.21" id="b2xPc2OoCz"></path><path d="M372.96 515.06L293.94 515.38" id="cCQHVhgtC"></path><path d="M443.03 105.78C440.3 104.52 437.36 104.52 434.21 105.78" id="e10r1fqZa5"></path><path d="M230.55 105.8C227.82 104.54 224.88 104.54 221.73 105.8" id="aHjBkYnzx"></path><path d="M202.55 148.53L202.58 146.61L202.63 143.57" id="e1iHeru8us"></path><path d="M248.9 148.09L249.08 146.18L249.37 143.15" id="d46vmQT2WO"></path><path d="M415.56 148.48L415.43 146.57L415.22 143.53" id="cr6HM6BHX"></path><path d="M462.09 148.59L462.1 146.68L462.13 143.63" id="amkh79Cyt"></path><path d="M278.26 504.74L274.16 504.74" id="b2hwgbRBj"></path><path d="M376.35 504.92L372.26 504.92" id="dRziMxwlX"></path><path d="M375.36 515.57L371.26 515.57" id="aL1vZYXb3"></path><path d="M294.77 505.21L290.67 505.21" id="e2II6jiXq"></path><path d="M295.86 515.87L291.77 515.87" id="cB5nvmQUV"></path><path d="M418.04 503.23L413.95 503.23" id="djjH8BtBL"></path><path d="M252.12 503.22L248.02 503.22" id="bO884G1R6"></path><path d="M204.37 498.3L201.4 498.3" id="c1zM9M6j2x"></path><path d="" id="aEgO7xtvP"></path><path d="M334.93 16.65L333.65 15.48L331.82 13.8" id="b8XrJgqQya"></path><path d="M464.65 498.3L461.67 498.3" id="a5NjTmbHO"></path></defs><g><g><g><g><use xlink:href="#i1zcu0TGkk" opacity="1" fill-opacity="0" stroke="#ffffff" stroke-width="5" stroke-opacity="1"></use></g></g><g><g><use xlink:href="#aF4tVUEH9" opacity="1" fill-opacity="0" stroke="#ffffff" stroke-width="5" stroke-opacity="1"></use></g></g><g><g><use xlink:href="#aQqypav9i" opacity="1" fill-opacity="0" stroke="#ffffff" stroke-width="5" stroke-opacity="1"></use></g></g><g><g><use xlink:href="#bm4KHCwuG" opacity="1" fill-opacity="0" stroke="#ffffff" stroke-width="5" stroke-opacity="1"></use></g></g><g><g><use xlink:href="#c5HXG4m4b" opacity="1" fill-opacity="0" stroke="#ffffff" stroke-width="5" stroke-opacity="1"></use></g></g><g><g><use xlink:href="#b2tGCd7AhT" opacity="1" fill-opacity="0" stroke="#ffffff" stroke-width="5" stroke-opacity="1"></use></g></g><g><g><use xlink:href="#bGD1r3MGf" opacity="1" fill-opacity="0" stroke="#ffffff" stroke-width="5" stroke-opacity="1"></use></g></g><g><g><use xlink:href="#a1hJ91Oj5z" opacity="1" fill-opacity="0" stroke="#ffffff" stroke-width="5" stroke-opacity="1"></use></g></g><g><g><use xlink:href="#aX55UiRrM" opacity="1" fill-opacity="0" stroke="#ffffff" stroke-width="5" stroke-opacity="1"></use></g></g><g><g><use xlink:href="#c3kZXkDM66" opacity="1" fill-opacity="0" stroke="#ffffff" stroke-width="5" stroke-opacity="1"></use></g></g><g><g><use xlink:href="#a19UdknFsv" opacity="1" fill-opacity="0" stroke="#ffffff" stroke-width="5" stroke-opacity="1"></use></g></g><g><g><use xlink:href="#b1xHmGYtYP" opacity="1" fill-opacity="0" stroke="#ffffff" stroke-width="5" stroke-opacity="1"></use></g></g><g><g><use xlink:href="#f1idnfrtaL" opacity="1" fill-opacity="0" stroke="#ffffff" stroke-width="5" stroke-opacity="1"></use></g></g><g><g><use xlink:href="#b5pGvpUWHe" opacity="1" fill-opacity="0" stroke="#ffffff" stroke-width="5" stroke-opacity="1"></use></g></g><g><g><use xlink:href="#c257JRvir" opacity="1" fill-opacity="0" stroke="#ffffff" stroke-width="5" stroke-opacity="1"></use></g></g><g><g><use xlink:href="#g11FIzIN5e" opacity="1" fill-opacity="0" stroke="#ffffff" stroke-width="5" stroke-opacity="1"></use></g></g><g><g><use xlink:href="#e1PYzNx0wl" opacity="1" fill-opacity="0" stroke="#ffffff" stroke-width="5" stroke-opacity="1"></use></g></g><g><g><use xlink:href="#b18MrC0T8L" opacity="1" fill-opacity="0" stroke="#ffffff" stroke-width="5" stroke-opacity="1"></use></g></g><g><g><use xlink:href="#a34dvp4Xp" opacity="1" fill-opacity="0" stroke="#ffffff" stroke-width="5" stroke-opacity="1"></use></g></g><g><g><use xlink:href="#aDS5FVU7k" opacity="1" fill-opacity="0" stroke="#ffffff" stroke-width="5" stroke-opacity="1"></use></g></g><g><g><use xlink:href="#g1BiYVjNcX" opacity="1" fill-opacity="0" stroke="#ffffff" stroke-width="5" stroke-opacity="1"></use></g></g><g><g><use xlink:href="#hQFExPyVa" opacity="1" fill-opacity="0" stroke="#ffffff" stroke-width="5" stroke-opacity="1"></use></g></g><g><g><use xlink:href="#a4blJWm148" opacity="1" fill-opacity="0" stroke="#ffffff" stroke-width="5" stroke-opacity="1"></use></g></g><g><g><use xlink:href="#l1pcQDWSeL" opacity="1" fill-opacity="0" stroke="#ffffff" stroke-width="5" stroke-opacity="1"></use></g></g><g><g><use xlink:href="#bYKAaX1KG" opacity="1" fill-opacity="0" stroke="#ffffff" stroke-width="5" stroke-opacity="1"></use></g></g><g><g><use xlink:href="#c485xisZFc" opacity="1" fill-opacity="0" stroke="#ffffff" stroke-width="5" stroke-opacity="1"></use></g></g><g><g><use xlink:href="#c2aIRogbZ1" opacity="1" fill-opacity="0" stroke="#ffffff" stroke-width="5" stroke-opacity="1"></use></g></g><g><g><use xlink:href="#g64JbvhsZf" opacity="1" fill-opacity="0" stroke="#ffffff" stroke-width="5" stroke-opacity="1"></use></g></g><g><g><use xlink:href="#ebGEOcXuT" opacity="1" fill-opacity="0" stroke="#ffffff" stroke-width="5" stroke-opacity="1"></use></g></g><g><g><use xlink:href="#h6FY2Nwln" opacity="1" fill-opacity="0" stroke="#ffffff" stroke-width="5" stroke-opacity="1"></use></g></g><g><g><use xlink:href="#e1pqWKMQP" opacity="1" fill-opacity="0" stroke="#ffffff" stroke-width="5" stroke-opacity="1"></use></g></g><g><g><use xlink:href="#b2xPc2OoCz" opacity="1" fill-opacity="0" stroke="#ffffff" stroke-width="5" stroke-opacity="1"></use></g></g><g><g><use xlink:href="#cCQHVhgtC" opacity="1" fill-opacity="0" stroke="#ffffff" stroke-width="5" stroke-opacity="1"></use></g></g><g><g><use xlink:href="#e10r1fqZa5" opacity="1" fill-opacity="0" stroke="#ffffff" stroke-width="4" stroke-opacity="1"></use></g></g><g><g><use xlink:href="#aHjBkYnzx" opacity="1" fill-opacity="0" stroke="#ffffff" stroke-width="4" stroke-opacity="1"></use></g></g><g><g><use xlink:href="#e1iHeru8us" opacity="1" fill-opacity="0" stroke="#ffffff" stroke-width="4" stroke-opacity="1"></use></g></g><g><g><use xlink:href="#d46vmQT2WO" opacity="1" fill-opacity="0" stroke="#ffffff" stroke-width="4" stroke-opacity="1"></use></g></g><g><g><use xlink:href="#cr6HM6BHX" opacity="1" fill-opacity="0" stroke="#ffffff" stroke-width="4" stroke-opacity="1"></use></g></g><g><g><use xlink:href="#amkh79Cyt" opacity="1" fill-opacity="0" stroke="#ffffff" stroke-width="4" stroke-opacity="1"></use></g></g><g><g><use xlink:href="#b2hwgbRBj" opacity="1" fill-opacity="0" stroke="#ffffff" stroke-width="4" stroke-opacity="1"></use></g></g><g><g><use xlink:href="#dRziMxwlX" opacity="1" fill-opacity="0" stroke="#ffffff" stroke-width="4" stroke-opacity="1"></use></g></g><g><g><use xlink:href="#aL1vZYXb3" opacity="1" fill-opacity="0" stroke="#ffffff" stroke-width="4" stroke-opacity="1"></use></g></g><g><g><use xlink:href="#e2II6jiXq" opacity="1" fill-opacity="0" stroke="#ffffff" stroke-width="4" stroke-opacity="1"></use></g></g><g><g><use xlink:href="#cB5nvmQUV" opacity="1" fill-opacity="0" stroke="#ffffff" stroke-width="4" stroke-opacity="1"></use></g></g><g><g><use xlink:href="#djjH8BtBL" opacity="1" fill-opacity="0" stroke="#ffffff" stroke-width="4" stroke-opacity="1"></use></g></g><g><g><use xlink:href="#bO884G1R6" opacity="1" fill-opacity="0" stroke="#ffffff" stroke-width="4" stroke-opacity="1"></use></g></g><g><g><use xlink:href="#c1zM9M6j2x" opacity="1" fill-opacity="0" stroke="#ffffff" stroke-width="4" stroke-opacity="1"></use></g></g><g><g><use xlink:href="#aEgO7xtvP" opacity="1" fill-opacity="0" stroke="#ffffff" stroke-width="4" stroke-opacity="1"></use></g></g><g><g><use xlink:href="#b8XrJgqQya" opacity="1" fill-opacity="0" stroke="#ffffff" stroke-width="4" stroke-opacity="1"></use></g></g><g><g><use xlink:href="#a5NjTmbHO" opacity="1" fill-opacity="0" stroke="#ffffff" stroke-width="4" stroke-opacity="1"></use></g></g></g></g></svg>